{
  "source": "C:\\Users\\Peter\\Desktop\\stuff\\MIUN\\quantitative_research\\video_compression\\videos\\BVI-HD\\BVI-HD_CDVL_videos\\ORIG\\Hamster_1920x1080_60fps.mp4",
  "output": "C:\\Users\\Peter\\Desktop\\stuff\\MIUN\\quantitative_research\\video_compression\\compressed_videos\\BVI-HD\\av1\\2.5\\Hamster_1920x1080_60fps_av1.mkv",
  "codec": "av1",
  "ok": "Input #0, mov,mp4,m4a,3gp,3g2,mj2, from 'C:\\Users\\Peter\\Desktop\\stuff\\MIUN\\quantitative_research\\video_compression\\videos\\BVI-HD\\BVI-HD_CDVL_videos\\ORIG\\Hamster_1920x1080_60fps.mp4':\n  Metadata:\n    major_brand     : isom\n    minor_version   : 512\n    compatible_brands: isomiso2avc1mp41\n    encoder         : Lavf54.28.101\n  Duration: 00:00:05.00, start: 0.000000, bitrate: 208485 kb/s\n  Stream #0:0[0x1](und): Video: h264 (High 4:4:4 Predictive) (avc1 / 0x31637661), yuv420p(progressive), 1920x1080, 208481 kb/s, 60 fps, 60 tbr, 60 tbn (default)\n    Metadata:\n      handler_name    : VideoHandler\n      vendor_id       : [0][0][0][0]\n[out#0/matroska @ 0000021fcce19100] Codec AVOption b:a (set bitrate (in bits/s)) has not been used for any stream. The most likely reason is either wrong type (e.g. a video option with no video streams) or that it is a private option of some decoder which was not actually used for any stream.\nStream mapping:\n  Stream #0:0 -> #0:0 (h264 (native) -> av1 (libsvtav1))\nPress [q] to stop, [?] for help\nSvt[info]: -------------------------------------------\nSvt[info]: SVT [version]:\tSVT-AV1 Encoder Lib v3.1.0-19-g6ecfe8ec\nSvt[info]: SVT [build]  :\tGCC 15.2.0\t 64 bit\nSvt[info]: LIB Build date: Aug 17 2025 11:37:13\nSvt[info]: -------------------------------------------\nSvt[info]: Level of Parallelism: 5\nSvt[info]: Number of PPCS 93\nSvt[info]: [asm level on system : up to avx2]\nSvt[info]: [asm level selected : up to avx2]\nSvt[info]: -------------------------------------------\nSvt[info]: SVT [config]: main profile\ttier (auto)\tlevel (auto)\nSvt[info]: SVT [config]: width / height / fps numerator / fps denominator \t\t: 1920 / 1080 / 60 / 1\nSvt[info]: SVT [config]: bit-depth / color format \t\t\t\t\t: 8 / YUV420\nSvt[info]: SVT [config]: preset / tune / pred struct \t\t\t\t\t: 4 / PSNR / random access\nSvt[info]: SVT [config]: gop size / mini-gop size / key-frame type \t\t\t: 321 / 16 / key frame\nSvt[info]: SVT [config]: BRC mode / target bitrate (kbps)\t\t\t\t: VBR / 2500 \nSvt[info]: SVT [config]: AQ mode / Variance Boost \t\t\t\t\t: 2 / 0\nSvt[info]: SVT [config]: sharpness / luminance-based QP bias \t\t\t\t: 0 / 0\nSvt[info]: SVT [config]: QP scale compress strength \t\t\t\t\t: 0\nSvt[info]: -------------------------------------------\nOutput #0, matroska, to 'C:\\Users\\Peter\\Desktop\\stuff\\MIUN\\quantitative_research\\video_compression\\compressed_videos\\BVI-HD\\av1\\2.5\\Hamster_1920x1080_60fps_av1.mkv':\n  Metadata:\n    major_brand     : isom\n    minor_version   : 512\n    compatible_brands: isomiso2avc1mp41\n    encoder         : Lavf62.3.100\n  Stream #0:0(und): Video: av1 (AV01 / 0x31305641), yuv420p(tv, progressive), 1920x1080, q=2-31, 2500 kb/s, 60 fps, 1k tbn (default)\n    Metadata:\n      encoder         : Lavc62.11.100 libsvtav1\n      handler_name    : VideoHandler\n      vendor_id       : [0][0][0][0]\n    Side data:\n      cpb: bitrate max/min/avg: 0/0/2500000 buffer size: 2500000 vbv_delay: N/A\nframe=    0 fps=0.0 q=0.0 size=       0KiB time=N/A bitrate=N/A speed=N/A elapsed=0:00:01.05    \nframe=    0 fps=0.0 q=0.0 size=       0KiB time=N/A bitrate=N/A speed=N/A elapsed=0:00:01.64    \nframe=    0 fps=0.0 q=0.0 size=       0KiB time=N/A bitrate=N/A speed=N/A elapsed=0:00:02.19    \nframe=    0 fps=0.0 q=0.0 size=       0KiB time=N/A bitrate=N/A speed=N/A elapsed=0:00:02.81    \nframe=    0 fps=0.0 q=0.0 size=       0KiB time=N/A bitrate=N/A speed=N/A elapsed=0:00:03.36    \nframe=    0 fps=0.0 q=0.0 size=       0KiB time=N/A bitrate=N/A speed=N/A elapsed=0:00:03.90    \nframe=    0 fps=0.0 q=0.0 size=       0KiB time=N/A bitrate=N/A speed=N/A elapsed=0:00:04.43    \nframe=    1 fps=0.2 q=10.0 size=       1KiB time=00:00:00.00 bitrate=N/A speed=   0x elapsed=0:00:04.96    \nframe=    1 fps=0.2 q=10.0 size=       1KiB time=00:00:00.00 bitrate=N/A speed=   0x elapsed=0:00:05.50    \nframe=    1 fps=0.2 q=10.0 size=       1KiB time=00:00:00.00 bitrate=N/A speed=   0x elapsed=0:00:06.01    \nframe=    5 fps=0.8 q=36.0 size=       1KiB time=00:00:00.06 bitrate=  85.4kbits/s speed=0.0102x elapsed=0:00:06.54    \nframe=    7 fps=1.0 q=36.0 size=       1KiB time=00:00:00.10 bitrate=  57.0kbits/s speed=0.0141x elapsed=0:00:07.10    \nframe=    9 fps=1.2 q=33.0 size=       1KiB time=00:00:00.13 bitrate=  42.7kbits/s speed=0.0174x elapsed=0:00:07.64    \nframe=   12 fps=1.5 q=41.0 size=       1KiB time=00:00:00.16 bitrate=  34.2kbits/s speed=0.0203x elapsed=0:00:08.20    \nframe=   16 fps=1.8 q=41.0 size=       1KiB time=00:00:00.25 bitrate=  22.8kbits/s speed=0.0284x elapsed=0:00:08.80    \nframe=   18 fps=1.9 q=36.0 size=       1KiB time=00:00:00.28 bitrate=  20.1kbits/s speed=0.0304x elapsed=0:00:09.31    \nframe=   21 fps=2.1 q=35.0 size=       1KiB time=00:00:00.31 bitrate=  18.0kbits/s speed=0.0321x elapsed=0:00:09.87    \nframe=   23 fps=2.2 q=37.0 size=       1KiB time=00:00:00.36 bitrate=  15.5kbits/s speed=0.0352x elapsed=0:00:10.42    \nframe=   26 fps=2.4 q=36.0 size=       1KiB time=00:00:00.40 bitrate=  14.2kbits/s speed=0.0365x elapsed=0:00:10.94    \nframe=   29 fps=2.5 q=35.0 size=       1KiB time=00:00:00.46 bitrate=  12.2kbits/s speed=0.0406x elapsed=0:00:11.49    \nframe=   32 fps=2.7 q=37.0 size=       1KiB time=00:00:00.51 bitrate=  11.0kbits/s speed=0.0429x elapsed=0:00:12.03    \nframe=   35 fps=2.8 q=38.0 size=       1KiB time=00:00:00.56 bitrate=  10.1kbits/s speed=0.045x elapsed=0:00:12.58    \nframe=   37 fps=2.8 q=36.0 size=       1KiB time=00:00:00.60 bitrate=   9.5kbits/s speed=0.0458x elapsed=0:00:13.09    \nframe=   39 fps=2.9 q=38.0 size=       1KiB time=00:00:00.63 bitrate=   9.0kbits/s speed=0.0465x elapsed=0:00:13.61    \nframe=   42 fps=3.0 q=36.0 size=       1KiB time=00:00:00.68 bitrate=   8.3kbits/s speed=0.0483x elapsed=0:00:14.14    \nframe=   46 fps=3.1 q=36.0 size=       1KiB time=00:00:00.75 bitrate=   7.6kbits/s speed=0.0511x elapsed=0:00:14.69    \nframe=   49 fps=3.2 q=23.0 size=       1KiB time=00:00:00.80 bitrate=   7.1kbits/s speed=0.0526x elapsed=0:00:15.22    \nframe=   51 fps=3.2 q=40.0 size=       1KiB time=00:00:00.83 bitrate=   6.8kbits/s speed=0.0528x elapsed=0:00:15.77    \nframe=   53 fps=3.2 q=38.0 size=       1KiB time=00:00:00.86 bitrate=   6.6kbits/s speed=0.0531x elapsed=0:00:16.32    \nframe=   55 fps=3.3 q=40.0 size=       1KiB time=00:00:00.90 bitrate=   6.3kbits/s speed=0.0532x elapsed=0:00:16.91    \nframe=   58 fps=3.3 q=37.0 size=       1KiB time=00:00:00.95 bitrate=   6.0kbits/s speed=0.0542x elapsed=0:00:17.51    \nframe=   60 fps=3.3 q=37.0 size=       1KiB time=00:00:00.98 bitrate=   5.8kbits/s speed=0.0543x elapsed=0:00:18.10    \nframe=   64 fps=3.4 q=35.0 size=       1KiB time=00:00:01.05 bitrate=   5.4kbits/s speed=0.0561x elapsed=0:00:18.70    \nframe=   66 fps=3.4 q=35.0 size=       1KiB time=00:00:01.08 bitrate=   5.3kbits/s speed=0.0563x elapsed=0:00:19.23    \nframe=   69 fps=3.5 q=38.0 size=       1KiB time=00:00:01.11 bitrate=   5.1kbits/s speed=0.0564x elapsed=0:00:19.79    \nframe=   71 fps=3.5 q=37.0 size=       1KiB time=00:00:01.16 bitrate=   4.9kbits/s speed=0.0573x elapsed=0:00:20.36    \nframe=   74 fps=3.5 q=38.0 size=       1KiB time=00:00:01.21 bitrate=   4.7kbits/s speed=0.0582x elapsed=0:00:20.90    \nframe=   76 fps=3.5 q=38.0 size=       1KiB time=00:00:01.25 bitrate=   4.6kbits/s speed=0.0583x elapsed=0:00:21.43    \nframe=   81 fps=3.7 q=22.0 size=       1KiB time=00:00:01.33 bitrate=   4.3kbits/s speed=0.0607x elapsed=0:00:21.95    \nframe=   84 fps=3.7 q=40.0 size=       1KiB time=00:00:01.38 bitrate=   4.1kbits/s speed=0.0616x elapsed=0:00:22.47    \nframe=   87 fps=3.8 q=36.0 size=       1KiB time=00:00:01.43 bitrate=   4.0kbits/s speed=0.0624x elapsed=0:00:22.98    \nframe=   91 fps=3.9 q=38.0 size=       1KiB time=00:00:01.48 bitrate=   3.8kbits/s speed=0.0631x elapsed=0:00:23.51    \nframe=   96 fps=4.0 q=41.0 size=       1KiB time=00:00:01.58 bitrate=   3.6kbits/s speed=0.0658x elapsed=0:00:24.06    \nframe=   99 fps=4.0 q=38.0 size=       1KiB time=00:00:01.63 bitrate=   3.5kbits/s speed=0.0665x elapsed=0:00:24.57    \nframe=  102 fps=4.1 q=42.0 size=       1KiB time=00:00:01.68 bitrate=   3.4kbits/s speed=0.0671x elapsed=0:00:25.09    \nframe=  103 fps=4.0 q=38.0 size=       1KiB time=00:00:01.70 bitrate=   3.4kbits/s speed=0.0663x elapsed=0:00:25.62    \nframe=  107 fps=4.1 q=37.0 size=       1KiB time=00:00:01.76 bitrate=   3.2kbits/s speed=0.0676x elapsed=0:00:26.14    \nframe=  112 fps=4.2 q=40.0 size=       1KiB time=00:00:01.85 bitrate=   3.1kbits/s speed=0.0694x elapsed=0:00:26.66    \nframe=  115 fps=4.2 q=37.0 size=       1KiB time=00:00:01.90 bitrate=   3.0kbits/s speed=0.0699x elapsed=0:00:27.18    \nframe=  118 fps=4.3 q=40.0 size=       1KiB time=00:00:01.95 bitrate=   2.9kbits/s speed=0.0704x elapsed=0:00:27.70    \nframe=  122 fps=4.3 q=39.0 size=       1KiB time=00:00:02.01 bitrate=   2.8kbits/s speed=0.0714x elapsed=0:00:28.23    \nframe=  126 fps=4.4 q=39.0 size=       1KiB time=00:00:02.08 bitrate=   2.7kbits/s speed=0.0724x elapsed=0:00:28.76    \nframe=  130 fps=4.4 q=40.0 size=       1KiB time=00:00:02.15 bitrate=   2.6kbits/s speed=0.0734x elapsed=0:00:29.28    \nframe=  133 fps=4.5 q=36.0 size=       1KiB time=00:00:02.20 bitrate=   2.6kbits/s speed=0.0738x elapsed=0:00:29.80    \nframe=  135 fps=4.5 q=38.0 size=       1KiB time=00:00:02.23 bitrate=   2.6kbits/s speed=0.0737x elapsed=0:00:30.32    \nframe=  138 fps=4.5 q=39.0 size=       1KiB time=00:00:02.28 bitrate=   2.5kbits/s speed=0.074x elapsed=0:00:30.86    \nframe=  142 fps=4.5 q=40.0 size=       1KiB time=00:00:02.35 bitrate=   2.4kbits/s speed=0.0749x elapsed=0:00:31.37    \nframe=  147 fps=4.6 q=40.0 size=       1KiB time=00:00:02.43 bitrate=   2.3kbits/s speed=0.0763x elapsed=0:00:31.89    \nframe=  150 fps=4.6 q=41.0 size=       1KiB time=00:00:02.48 bitrate=   2.3kbits/s speed=0.0766x elapsed=0:00:32.41    \nframe=  154 fps=4.7 q=41.0 size=       1KiB time=00:00:02.55 bitrate=   2.2kbits/s speed=0.0773x elapsed=0:00:32.98    \nframe=  157 fps=4.7 q=36.0 size=       1KiB time=00:00:02.60 bitrate=   2.2kbits/s speed=0.0775x elapsed=0:00:33.56    \nframe=  161 fps=4.7 q=23.0 size=       1KiB time=00:00:02.66 bitrate=   2.1kbits/s speed=0.0781x elapsed=0:00:34.12    \nframe=  164 fps=4.7 q=44.0 size=       1KiB time=00:00:02.71 bitrate=   2.1kbits/s speed=0.0784x elapsed=0:00:34.64    \nframe=  167 fps=4.7 q=43.0 size=       1KiB time=00:00:02.76 bitrate=   2.1kbits/s speed=0.0786x elapsed=0:00:35.19    \nframe=  170 fps=4.7 q=44.0 size=       1KiB time=00:00:02.81 bitrate=   2.0kbits/s speed=0.0787x elapsed=0:00:35.79    \nframe=  175 fps=4.8 q=43.0 size=       1KiB time=00:00:02.88 bitrate=   2.0kbits/s speed=0.0793x elapsed=0:00:36.38    \nframe=  179 fps=4.8 q=45.0 size=       1KiB time=00:00:02.96 bitrate=   1.9kbits/s speed=0.0803x elapsed=0:00:36.92    \nframe=  182 fps=4.9 q=46.0 size=       1KiB time=00:00:03.01 bitrate=   1.9kbits/s speed=0.0805x elapsed=0:00:37.46    \nframe=  183 fps=4.8 q=45.0 size=       1KiB time=00:00:03.03 bitrate=   1.9kbits/s speed=0.0798x elapsed=0:00:38.00    \nframe=  187 fps=4.9 q=44.0 size=       1KiB time=00:00:03.10 bitrate=   1.8kbits/s speed=0.0804x elapsed=0:00:38.53    \nframe=  190 fps=4.9 q=45.0 size=       1KiB time=00:00:03.15 bitrate=   1.8kbits/s speed=0.0806x elapsed=0:00:39.07    \nframe=  193 fps=4.9 q=30.0 size=       1KiB time=00:00:03.20 bitrate=   1.8kbits/s speed=0.0808x elapsed=0:00:39.59    \nframe=  196 fps=4.9 q=45.0 size=       1KiB time=00:00:03.25 bitrate=   1.8kbits/s speed=0.081x elapsed=0:00:40.11    \nframe=  198 fps=4.9 q=45.0 size=       1KiB time=00:00:03.28 bitrate=   1.7kbits/s speed=0.0807x elapsed=0:00:40.66    \nframe=  201 fps=4.9 q=40.0 size=       1KiB time=00:00:03.31 bitrate=   1.7kbits/s speed=0.0805x elapsed=0:00:41.20    \nframe=  205 fps=4.9 q=40.0 size=       1KiB time=00:00:03.40 bitrate=   1.7kbits/s speed=0.0815x elapsed=0:00:41.73    \nframe=  207 fps=4.9 q=43.0 size=       1KiB time=00:00:03.43 bitrate=   1.7kbits/s speed=0.0813x elapsed=0:00:42.25    \nframe=  211 fps=4.9 q=42.0 size=       1KiB time=00:00:03.46 bitrate=   1.6kbits/s speed=0.081x elapsed=0:00:42.77    \nframe=  213 fps=4.9 q=39.0 size=       1KiB time=00:00:03.53 bitrate=   1.6kbits/s speed=0.0816x elapsed=0:00:43.30    \nframe=  217 fps=4.9 q=40.0 size=       1KiB time=00:00:03.60 bitrate=   1.6kbits/s speed=0.0821x elapsed=0:00:43.83    \nframe=  217 fps=4.9 q=40.0 size=       1KiB time=00:00:03.60 bitrate=   1.6kbits/s speed=0.0811x elapsed=0:00:44.36    \nframe=  221 fps=4.9 q=39.0 size=       1KiB time=00:00:03.66 bitrate=   1.6kbits/s speed=0.0816x elapsed=0:00:44.90    \nframe=  225 fps=4.9 q=34.0 size=       1KiB time=00:00:03.73 bitrate=   1.5kbits/s speed=0.0821x elapsed=0:00:45.47    \nframe=  229 fps=5.0 q=41.0 size=       1KiB time=00:00:03.80 bitrate=   1.5kbits/s speed=0.0826x elapsed=0:00:46.00    \nframe=  233 fps=5.0 q=39.0 size=       1KiB time=00:00:03.83 bitrate=   1.5kbits/s speed=0.0823x elapsed=0:00:46.56    \nframe=  233 fps=4.9 q=39.0 size=       1KiB time=00:00:03.86 bitrate=   1.5kbits/s speed=0.0821x elapsed=0:00:47.07    \nframe=  235 fps=4.9 q=39.0 size=       1KiB time=00:00:03.90 bitrate=   1.5kbits/s speed=0.0819x elapsed=0:00:47.61    \nframe=  237 fps=4.9 q=35.0 size=       1KiB time=00:00:03.93 bitrate=   1.4kbits/s speed=0.0816x elapsed=0:00:48.17    \nframe=  241 fps=4.9 q=32.0 size=       1KiB time=00:00:04.00 bitrate=   1.4kbits/s speed=0.0821x elapsed=0:00:48.69    \nframe=  245 fps=5.0 q=35.0 size=       1KiB time=00:00:04.06 bitrate=   1.4kbits/s speed=0.0826x elapsed=0:00:49.21    \nframe=  249 fps=5.0 q=34.0 size=       1KiB time=00:00:04.13 bitrate=   1.4kbits/s speed=0.083x elapsed=0:00:49.80    \nframe=  249 fps=4.9 q=34.0 size=       1KiB time=00:00:04.13 bitrate=   1.4kbits/s speed=0.0821x elapsed=0:00:50.34    \nframe=  253 fps=5.0 q=35.0 size=       1KiB time=00:00:04.20 bitrate=   1.4kbits/s speed=0.0825x elapsed=0:00:50.88    \nframe=  255 fps=5.0 q=38.0 size=       1KiB time=00:00:04.23 bitrate=   1.3kbits/s speed=0.0823x elapsed=0:00:51.42    \nframe=  257 fps=4.9 q=26.0 size=       1KiB time=00:00:04.26 bitrate=   1.3kbits/s speed=0.0821x elapsed=0:00:51.95    \nframe=  261 fps=5.0 q=38.0 size=       1KiB time=00:00:04.33 bitrate=   1.3kbits/s speed=0.0826x elapsed=0:00:52.48    \nframe=  265 fps=5.0 q=34.0 size=       1KiB time=00:00:04.40 bitrate=   1.3kbits/s speed=0.083x elapsed=0:00:53.01    \nframe=  265 fps=4.9 q=34.0 size=       1KiB time=00:00:04.40 bitrate=   1.3kbits/s speed=0.0822x elapsed=0:00:53.54    \nframe=  269 fps=5.0 q=39.0 size=       1KiB time=00:00:04.46 bitrate=   1.3kbits/s speed=0.0826x elapsed=0:00:54.08    \nframe=  271 fps=5.0 q=42.0 size=       1KiB time=00:00:04.50 bitrate=   1.3kbits/s speed=0.0824x elapsed=0:00:54.64    \nframe=  277 fps=5.0 q=42.0 size=       1KiB time=00:00:04.56 bitrate=   1.2kbits/s speed=0.0827x elapsed=0:00:55.18    \nframe=  279 fps=5.0 q=42.0 size=       1KiB time=00:00:04.63 bitrate=   1.2kbits/s speed=0.0831x elapsed=0:00:55.72    \nframe=  281 fps=5.0 q=39.0 size=       1KiB time=00:00:04.66 bitrate=   1.2kbits/s speed=0.083x elapsed=0:00:56.23    \nframe=  285 fps=5.0 q=42.0 size=       1KiB time=00:00:04.73 bitrate=   1.2kbits/s speed=0.0834x elapsed=0:00:56.75    \nframe=  293 fps=5.1 q=39.0 size=       1KiB time=00:00:04.86 bitrate=   1.2kbits/s speed=0.085x elapsed=0:00:57.26    \n[out#0/matroska @ 0000021fcce19100] video:1637KiB audio:0KiB subtitle:0KiB other streams:0KiB global headers:0KiB muxing overhead: 0.127404%\nframe=  300 fps=5.2 q=42.0 Lsize=    1639KiB time=00:00:04.98 bitrate=2693.6kbits/s speed=0.0867x elapsed=0:00:57.45    \n",
  "seconds": 58.036768198013306,
  "probe_out": {}
}